<svg width="388" height="71" viewBox="0 0 388 71" fill="none" xmlns="http://www.w3.org/2000/svg">
<path d="M48.6785 56H42.7597V38.2725H13.8298V32.3537H42.7597V14.5973H48.6785V56ZM10.8848 56H4.96602V14.5973H10.8848V56ZM91.8424 56H57.8887V23.3744H91.8424V29.3221H63.8653V50.0235H91.8424V56ZM88.0602 42.5167H66.6659V36.5401H88.0602V42.5167ZM135.642 56H129.723V47.0785H106.943V41.0442H129.723V29.3221H114.334C112.89 29.3221 111.533 29.6012 110.263 30.1594C108.993 30.6983 107.886 31.4394 106.943 32.3826C105.999 33.3257 105.249 34.4325 104.691 35.7029C104.152 36.954 103.882 38.3013 103.882 39.745V56H97.9056V39.745C97.9056 37.4737 98.3387 35.3468 99.2048 33.3642C100.071 31.3816 101.245 29.6493 102.727 28.1672C104.209 26.6851 105.951 25.5206 107.953 24.6737C109.955 23.8075 112.082 23.3744 114.334 23.3744H135.642V56ZM175.283 56H144.159V23.4899H150.078V50.0812H175.283V56ZM194.83 56H188.911V29.3221H173.262V23.4899H210.449V29.3221H194.83V56ZM249.542 56H243.624V42.7477H224.077V36.8289H243.624V23.4899H249.542V56ZM221.276 56H215.358V23.4899H221.276V56Z" fill="#00B654"/>
<path d="M263.95 56H258.088V23.4899H263.95V56ZM306.478 29.3221H278.443V56H272.467V23.3744H306.478V29.3221ZM302.638 42.5167H281.244V36.5401H302.638V42.5167ZM347.996 46.4144C347.996 47.7426 347.679 48.9937 347.044 50.1678C346.428 51.3227 345.581 52.3332 344.503 53.1994C343.444 54.0656 342.193 54.7489 340.75 55.2493C339.306 55.7498 337.776 56 336.159 56H310.722V50.0812H336.159C336.967 50.0812 337.728 49.9946 338.44 49.8214C339.171 49.6289 339.806 49.369 340.345 49.0418C340.884 48.6953 341.308 48.3008 341.616 47.858C341.924 47.4153 342.078 46.9341 342.078 46.4144V44.942H322.502C320.885 44.942 319.355 44.634 317.912 44.018C316.487 43.3829 315.236 42.5359 314.158 41.4773C313.1 40.3994 312.262 39.1483 311.646 37.7239C311.03 36.2803 310.722 34.7404 310.722 33.1044V23.4899H316.584V33.1044C316.584 33.932 316.738 34.7116 317.045 35.443C317.353 36.1552 317.777 36.7807 318.316 37.3197C318.855 37.8394 319.48 38.2532 320.193 38.5612C320.924 38.8692 321.694 39.0232 322.502 39.0232H342.078V23.4899H347.996V46.4144Z" fill="#282626"/>
<path d="M353.048 34.7886L362.2 44.2999L382.218 24.6564C387.244 19.7253 387.401 11.5763 382.569 6.45522C377.737 1.33421 369.746 1.18036 364.721 6.11159C364.015 6.80411 362.892 8.36219 362.892 8.36219C362.892 8.36219 361.83 6.76203 361.151 6.04287C356.319 0.921856 348.329 0.768008 343.303 5.69924C340.504 8.44641 339.215 12.1922 339.458 15.8568L339.442 14.4156" stroke="black" stroke-width="2.33333" stroke-linecap="round" stroke-linejoin="round"/>
</svg>
